<?xml version="1.0" encoding="utf-8"?>
<!-- Generator: Adobe Illustrator 16.0.0, SVG Export Plug-In . SVG Version: 6.00 Build 0)  -->
<!DOCTYPE svg PUBLIC "-//W3C//DTD SVG 1.1//EN" "http://www.w3.org/Graphics/SVG/1.1/DTD/svg11.dtd">
<svg version="1.1" id="Layer_1" xmlns="http://www.w3.org/2000/svg" xmlns:xlink="http://www.w3.org/1999/xlink" x="0px" y="0px"
	 width="960px" height="560px" viewBox="0 0 960 560" enable-background="new 0 0 960 560" xml:space="preserve">
<title>globe-head</title>
<circle fill="#58595B" cx="480" cy="280" r="280"/>
<path fill="#36CCA8" d="M480.383,439.982c0.908,0,1.794,0,2.69,0V119.995c-3.948,0-7.919,0.131-11.889,0.427
	c-49.776,2.68-99.127,32.43-125.453,76.759c-25.758,41.376-30.538,101.533-9.505,146.158
	C360.158,398.836,418.619,439.896,480.383,439.982z M378.008,387.734c9.844-9.373,20.268-17.38,31.643-23.221
	c2.438,4.551,4.714,8.663,7.438,12.994c12.709,20.218,29.021,37.931,48.125,52.26c-32.881-4.097-63.513-18.857-87.205-42.022
	V387.734z M332.07,286.016c0.81-0.088,1.673,0.131,2.33-0.229l54.906,0.12c0.317,22.969,6.563,48.377,16.111,69.912
	c-12.245,6.986-23.641,15.365-33.961,24.971c-24.303-27.136-37.964-59.357-39.364-94.729L332.07,286.016z M371.052,178.653
	c10.317,10.049,21.996,18.599,34.693,25.396c-10.084,22.947-15.672,47.616-16.461,72.669l-57.236-0.099
	c1.138-37.472,14.153-70.82,39.025-97.923L371.052,178.653z M468.221,129.729c-23.483,16.461-45.807,41.246-58.111,66.128
	c-11.986-6.395-22.958-14.529-32.561-24.139c25.692-24.784,56.918-38.38,90.694-41.945L468.221,129.729z M475.975,214.44
	c-20.021-0.612-39.672-5.56-57.597-14.503c12.327-24.008,34.07-48.486,57.466-63.788L475.975,214.44z M476.029,224.58l-0.12,52.139
	l-0.153,0.142l-77.043-0.142c0.437-23.565,5.77-46.781,15.662-68.173c19.274,9.262,40.243,14.474,61.611,15.313L476.029,224.58z
	 M476.161,335.88c-21.628,1.076-42.846,6.305-62.497,15.399c-8.641-20.212-14.656-41.978-14.919-65.274l2.122-0.153l75.086,0.186
	L476.161,335.88z M476.565,426.19c-24.193-16.461-45.86-40.315-58.712-66.106l1.094-0.656c17.5-8.487,37.526-13.201,57.246-14.371
	L476.565,426.19z"/>
<path fill="#FFFFFF" d="M561.189,422.188c1.443-12.151,0.316-26.25,11.276-34.377c11.517-7.207,25.899-5.764,39.178-8.641
	c5.469-1.094,12.479-1.597,14.799-7.831c4.375-12.644-13.278-22.969-0.963-33.982c1.094-3.117-3.117-3.916-4.638-5.917
	c-3.193-4.791,4.375-7.033,4.244-11.518c-3.281-4.714-6.803-9.275-6.158-15.586c1.75-8.553,11.343-7.12,16.309-12.479
	c1.887-2.266,2.26-5.431,0.951-8.072c-11.506-12.315-23.734-25.156-35.339-37.745l-1.094-2.724
	c-2.877-7.438,5.13-11.67,4.255-19.031c-4.802-22.313-17.992-41.563-33.195-59.063c-18.594-16.646-42.547-25.014-67.277-27.409
	v284.375h57.685H561.189z"/>
</svg>
