<?xml version="1.0" encoding="utf-8"?>
<!-- Generator: Adobe Illustrator 16.0.0, SVG Export Plug-In . SVG Version: 6.00 Build 0)  -->
<!DOCTYPE svg PUBLIC "-//W3C//DTD SVG 1.1//EN" "http://www.w3.org/Graphics/SVG/1.1/DTD/svg11.dtd">
<svg version="1.1" id="Layer_1" xmlns="http://www.w3.org/2000/svg" xmlns:xlink="http://www.w3.org/1999/xlink" x="0px" y="0px"
	 width="960px" height="560px" viewBox="0 0 960 560" enable-background="new 0 0 960 560" xml:space="preserve">
<title>globe-shield</title>
<path fill="#58595B" d="M760,280c0,154.646-125.354,280-280,280S200,434.646,200,280S325.354,0,480,0S760,125.354,760,280z"/>
<path fill="#33CC99" d="M617.354,197.094c-1.652-2.778-3.391-5.469-5.229-8.17c0,2.582-0.12,4.692-0.186,5.731
	c-0.208,3.281-0.58,6.563-0.974,9.844c12.479,21.514,19.271,45.741,20.07,72.056l-49.416,0.087
	c-5.329,6.811-11.271,13.12-17.751,18.845c-1.543,19.688-7.012,38.281-14.471,55.781c-19.65-9.097-40.869-14.325-62.497-15.399
	l0.109-29.729c-3.008-2.111-6.169-4.495-9.417-7.186l-0.065,36.477c-0.907,0.22-1.835,0.34-2.768,0.36
	c-20.923,0.804-41.516,5.477-60.735,13.781c-7.918-19.073-12.522-39.358-13.617-59.981l0.152-3.631l60.397-0.088h2.854
	c-2.646-2.844-5.283-5.851-7.842-9.132h-55.65c0.437-22.88,5.36-45.451,14.492-66.435c4.375,1.859,8.914,3.544,13.519,5.086
	c-0.678-3.467-1.269-6.978-1.717-10.565c-2.57-0.952-5.141-1.958-7.744-3.052c1.969-3.981,4.189-7.886,6.563-11.78
	c-0.099-4.528-0.186-11.112-0.24-16.504c-5.572,7.59-10.49,15.64-14.7,24.063c-12.852-6.344-25.813-15.236-35.711-25.638
	c25.998-24.861,58.078-39.692,93.909-42.35c-3.019,2.188-6.008,4.514-8.969,6.979c6.935-3.566,13.224-7.547,19.349-11.484
	c2.625-1.685,5.195-3.281,7.776-4.9c-64.148-2.778-125.048,34.005-152.25,92.553c-20.07,40.371-19.305,97.256,0.984,137.069
	c25.769,55.125,86.286,92.586,147.109,90.125c61.775-0.099,120.226-41.158,144.167-96.633
	C647.891,298.594,643.111,238.438,617.354,197.094z M329.467,265.147c0.656-0.492-0.153-1.444,0.372-2.111
	c4.091-31.522,16.067-60.496,38.281-84.427c11.322,11.01,24.225,20.267,38.281,27.464c-9.601,22.35-14.842,46.328-15.443,70.646
	l-61.677,0.099l-0.241-0.23L329.467,265.147z M367.683,380.964c-24.063-26.665-37.188-58.701-38.675-94.97l56.875-0.121l5.25,0.176
	c0.47,23.282,5.428,46.255,14.602,67.659C391.614,360.807,379.375,370.529,367.683,380.964z M374.376,387.942
	c10.216-10.938,22.892-18.922,35-25.682c12.512,25.091,32.735,50.313,56.875,67.999c-35.328-2.976-66.828-18.32-91.864-42.317
	H374.376z M477.189,426.475c-25.28-17.239-45.654-40.744-59.129-68.217c18.168-8.466,37.768-12.709,59.336-13.268L477.189,426.475z
	 M486.901,345.023c19.688,1.17,39.736,5.896,57.247,14.372l1.094,0.646c-12.852,25.79-34.519,49.645-58.701,66.105L486.901,345.023z
	 M497.927,429.68c19.107-14.328,35.42-32.046,48.125-52.271c2.724-4.375,5.009-8.433,7.438-12.982
	c11.375,5.841,21.787,13.847,31.62,23.209c-23.683,23.197-54.328,37.973-87.227,42.055L497.927,429.68z M591.563,380.734
	c-10.303-9.599-21.681-17.974-33.906-24.959c9.592-21.536,15.783-46.911,16.1-69.924l54.906-0.131
	c0.76,0.221,1.553,0.302,2.341,0.24C629.604,321.344,615.92,353.565,591.563,380.734z"/>
<path fill="#FFFFFF" d="M593.881,156.461c-17.62-5.031-30.701-13.497-42.273-20.923c-11.571-7.427-21.798-14.055-32.813-14.055
	c-2.741,0.006-5.47,0.374-8.115,1.094c-5.458,1.665-10.667,4.056-15.487,7.109c-0.043,0.039-0.091,0.072-0.143,0.098
	c-2.964,1.761-5.972,3.697-9.11,5.721c-2.56,1.651-5.229,3.369-7.996,5.064c-6.836,4.342-14.009,8.131-21.448,11.331
	c-4.182,1.766-8.466,3.278-12.829,4.528l-5.994,1.706v6.256c0,1.006,0,4.091,0,7.886c0.076,7.886,0.197,18.933,0.35,21.459
	c0.375,5.18,1.01,10.338,1.903,15.455c0.383,2.275,0.722,4.55,1.203,6.781c0.252,1.17,0.591,2.188,0.875,3.369
	c3.036,12.734,7.966,24.942,14.624,36.214c4.492,7.58,9.76,14.672,15.717,21.164c4.546,4.975,9.464,9.597,14.711,13.825
	c14.886,11.943,27.628,16.985,28.766,17.391l2.898,1.094l2.898-1.094c1.258-0.471,17.183-6.737,34.344-22.138
	c6.353-5.706,12.133-12.017,17.26-18.845c2.758-3.641,5.314-7.431,7.656-11.353c7.277-12.268,12.516-25.636,15.509-39.583
	c1.579-7.325,2.606-14.757,3.073-22.236c0.077-0.962,0.132-3.216,0.187-6.06c0.065-4.233,0.131-9.745,0.175-14.405
	c0-4.244,0.055-7.787,0.055-8.892v-6.256L593.881,156.461z M571.799,254.548c-0.219,0.339-0.416,0.733-0.613,1.094
	c-2.303,3.505-4.785,6.89-7.438,10.139c-3.107,3.841-6.442,7.494-9.985,10.938c-3.409,3.265-6.998,6.336-10.752,9.198
	c-13.344,10.237-24.248,14.372-24.248,14.372v-86.023h-69.541c-0.208-0.919-0.328-1.925-0.524-2.876
	c-1.194-5.99-1.995-12.051-2.396-18.146c-0.229-3.379-0.394-25.222-0.394-28.809c11.224-3.321,21.973-8.074,31.98-14.143
	c3.281-1.936,6.388-3.861,9.33-5.753c2.188-1.378,4.255-2.734,6.268-4.003c3.073-1.969,5.961-3.752,8.75-5.316
	c2.225-1.261,4.53-2.375,6.901-3.336c3.056-1.297,6.328-2.005,9.646-2.089v84.47h69.497
	C585.234,228.569,579.651,242.211,571.799,254.548L571.799,254.548z"/>
</svg>
