<?xml version="1.0" encoding="utf-8"?>
<!-- Generator: Adobe Illustrator 16.0.0, SVG Export Plug-In . SVG Version: 6.00 Build 0)  -->
<!DOCTYPE svg PUBLIC "-//W3C//DTD SVG 1.1//EN" "http://www.w3.org/Graphics/SVG/1.1/DTD/svg11.dtd">
<svg version="1.1" id="Layer_1" xmlns="http://www.w3.org/2000/svg" xmlns:xlink="http://www.w3.org/1999/xlink" x="0px" y="0px"
	 width="960px" height="560px" viewBox="0 0 960 560" enable-background="new 0 0 960 560" xml:space="preserve">
<title>globe-gear</title>
<circle fill="#58595B" cx="480" cy="280" r="280"/>
<path fill="#FFFFFF" d="M524.604,163.505c-6.432,16.953,1.586,23.472,12.873,27.759S559.1,196,565.521,179.058l7.755-20.376
	c18.168,11.022,33.607,26.013,45.16,43.849l-22.061,9.57c-16.636,7.229-15.695,17.5-10.872,28.59
	c4.823,11.091,11.682,18.802,28.317,11.572l22.586-9.844c5.497,19.99,6.543,40.942,3.063,61.381l-23.932-8.258
	c-17.149-5.852-23.417,2.33-27.344,13.781c-3.926,11.452-4.035,21.766,13.125,27.661l24.314,8.356
	c-11.538,22.515-28.915,41.517-50.313,55.016l-10.424-24.008c-7.24-16.636-17.5-15.685-28.612-10.872s-18.779,11.703-11.561,28.307
	l10.423,24.063c-11.744,3.003-23.829,4.474-35.951,4.375V350.81c39.07-2.835,68.445-36.806,65.611-75.876
	c-2.549-35.126-30.485-63.063-65.611-65.611v-71.509c11.34,0.012,22.639,1.378,33.654,4.069L524.604,163.505z M510.045,241.095
	c-3.493-1.316-7.145-2.166-10.86-2.526v11.473c16.627,2.269,28.267,17.586,25.998,34.214c-1.845,13.52-12.478,24.152-25.998,25.997
	v11.682c4.204-0.468,8.313-1.574,12.185-3.281c21.271-9.252,31.029-33.983,21.809-55.268
	C528.762,253.159,520.429,245.13,510.045,241.095L510.045,241.095z"/>
<path fill="#4ECCAA" d="M475.888,439.982c0.896,0,1.794,0,2.701,0V119.995c-3.959,0-7.919,0.121-11.899,0.427
	c-49.777,2.69-99.127,32.43-125.464,76.759c-25.747,41.376-30.538,101.533-9.505,146.168
	C355.663,398.836,414.112,439.885,475.888,439.982z M373.513,387.734c9.844-9.373,20.267-17.38,31.642-23.209
	c2.429,4.55,4.715,8.662,7.438,12.993c12.709,20.218,29.021,37.932,48.125,52.26c-32.886-4.096-63.522-18.861-87.215-42.033
	L373.513,387.734z M327.575,286.016c0.809-0.088,1.684,0.131,2.34-0.229l54.906,0.131c0.317,22.969,6.563,48.377,16.111,69.913
	c-12.246,6.985-23.642,15.364-33.961,24.97c-24.314-27.146-37.975-59.368-39.386-94.74L327.575,286.016z M366.567,178.653
	c10.312,10.063,21.987,18.627,34.683,25.44c-10.085,22.932-15.673,47.586-16.461,72.625l-57.247-0.109
	c1.148-37.461,14.153-70.81,39.036-97.913L366.567,178.653z M463.736,129.729c-23.483,16.461-45.807,41.246-58.111,66.128
	c-11.994-6.387-22.971-14.522-32.572-24.139c25.692-24.784,56.908-38.38,90.694-41.945L463.736,129.729z M471.49,214.44
	c-20.021-0.617-39.671-5.564-57.597-14.503c12.327-24.008,34.06-48.486,57.466-63.798L471.49,214.44z M471.49,224.58l-0.076,52.139
	l-0.153,0.142l-77.043-0.142c0.453-23.564,5.801-46.776,15.707-68.163c19.275,9.269,40.249,14.481,61.621,15.313L471.49,224.58z
	 M471.622,335.88c-21.631,1.08-42.852,6.309-62.508,15.399c-8.641-20.212-14.656-41.978-14.908-65.274l2.122-0.153l75.086,0.186
	L471.622,335.88z M472.037,426.19c-24.193-16.461-45.86-40.326-58.701-66.117l1.094-0.646c17.5-8.477,37.516-13.19,57.247-14.371
	L472.037,426.19z"/>
</svg>
